<svg width="350" height="92" viewBox="0 0 350 92" fill="none" xmlns="http://www.w3.org/2000/svg">
<g filter="url(#filter0_d)">
<rect x="11" y="11" width="328" height="70" rx="35" fill="#FDFDFF" stroke="#191BA9"/>
<path d="M124.337 44.176C129.201 44.176 132.737 45.056 134.945 46.816C137.185 48.544 138.305 50.976 138.305 54.112C138.305 56.064 137.841 57.808 136.913 59.344C136.017 60.88 134.657 62.096 132.833 62.992C131.009 63.856 128.769 64.288 126.113 64.288C123.713 64.288 121.425 63.904 119.249 63.136C117.105 62.336 115.377 61.28 114.065 59.968L115.745 57.232C116.865 58.384 118.337 59.328 120.161 60.064C121.985 60.768 123.953 61.12 126.065 61.12C128.849 61.12 130.993 60.496 132.497 59.248C134.033 58 134.801 56.336 134.801 54.256C134.801 51.952 133.937 50.208 132.209 49.024C130.513 47.84 127.633 47.248 123.569 47.248H116.417L118.145 30.4H136.529V33.472H121.169L120.017 44.176H124.337ZM156.235 64.288C153.643 64.288 151.323 63.6 149.275 62.224C147.259 60.848 145.675 58.88 144.523 56.32C143.403 53.728 142.843 50.688 142.843 47.2C142.843 43.712 143.403 40.688 144.523 38.128C145.675 35.536 147.259 33.552 149.275 32.176C151.323 30.8 153.643 30.112 156.235 30.112C158.827 30.112 161.131 30.8 163.147 32.176C165.195 33.552 166.795 35.536 167.947 38.128C169.099 40.688 169.675 43.712 169.675 47.2C169.675 50.688 169.099 53.728 167.947 56.32C166.795 58.88 165.195 60.848 163.147 62.224C161.131 63.6 158.827 64.288 156.235 64.288ZM156.235 61.12C158.187 61.12 159.899 60.576 161.371 59.488C162.875 58.4 164.043 56.816 164.875 54.736C165.707 52.656 166.123 50.144 166.123 47.2C166.123 44.256 165.707 41.744 164.875 39.664C164.043 37.584 162.875 36 161.371 34.912C159.899 33.824 158.187 33.28 156.235 33.28C154.283 33.28 152.555 33.824 151.051 34.912C149.579 36 148.427 37.584 147.595 39.664C146.763 41.744 146.347 44.256 146.347 47.2C146.347 50.144 146.763 52.656 147.595 54.736C148.427 56.816 149.579 58.4 151.051 59.488C152.555 60.576 154.283 61.12 156.235 61.12ZM188.166 64.288C185.574 64.288 183.254 63.6 181.206 62.224C179.19 60.848 177.606 58.88 176.454 56.32C175.334 53.728 174.774 50.688 174.774 47.2C174.774 43.712 175.334 40.688 176.454 38.128C177.606 35.536 179.19 33.552 181.206 32.176C183.254 30.8 185.574 30.112 188.166 30.112C190.758 30.112 193.062 30.8 195.078 32.176C197.126 33.552 198.726 35.536 199.878 38.128C201.03 40.688 201.606 43.712 201.606 47.2C201.606 50.688 201.03 53.728 199.878 56.32C198.726 58.88 197.126 60.848 195.078 62.224C193.062 63.6 190.758 64.288 188.166 64.288ZM188.166 61.12C190.118 61.12 191.83 60.576 193.302 59.488C194.806 58.4 195.974 56.816 196.806 54.736C197.638 52.656 198.054 50.144 198.054 47.2C198.054 44.256 197.638 41.744 196.806 39.664C195.974 37.584 194.806 36 193.302 34.912C191.83 33.824 190.118 33.28 188.166 33.28C186.214 33.28 184.486 33.824 182.982 34.912C181.51 36 180.358 37.584 179.526 39.664C178.694 41.744 178.278 44.256 178.278 47.2C178.278 50.144 178.694 52.656 179.526 54.736C180.358 56.816 181.51 58.4 182.982 59.488C184.486 60.576 186.214 61.12 188.166 61.12ZM220.097 64.288C217.505 64.288 215.185 63.6 213.137 62.224C211.121 60.848 209.537 58.88 208.385 56.32C207.265 53.728 206.705 50.688 206.705 47.2C206.705 43.712 207.265 40.688 208.385 38.128C209.537 35.536 211.121 33.552 213.137 32.176C215.185 30.8 217.505 30.112 220.097 30.112C222.689 30.112 224.993 30.8 227.009 32.176C229.057 33.552 230.657 35.536 231.809 38.128C232.961 40.688 233.537 43.712 233.537 47.2C233.537 50.688 232.961 53.728 231.809 56.32C230.657 58.88 229.057 60.848 227.009 62.224C224.993 63.6 222.689 64.288 220.097 64.288ZM220.097 61.12C222.049 61.12 223.761 60.576 225.233 59.488C226.737 58.4 227.905 56.816 228.737 54.736C229.569 52.656 229.985 50.144 229.985 47.2C229.985 44.256 229.569 41.744 228.737 39.664C227.905 37.584 226.737 36 225.233 34.912C223.761 33.824 222.049 33.28 220.097 33.28C218.145 33.28 216.417 33.824 214.913 34.912C213.441 36 212.289 37.584 211.457 39.664C210.625 41.744 210.209 44.256 210.209 47.2C210.209 50.144 210.625 52.656 211.457 54.736C212.289 56.816 213.441 58.4 214.913 59.488C216.417 60.576 218.145 61.12 220.097 61.12Z" fill="#3F3D56"/>
</g>
<defs>
<filter id="filter0_d" x="0.5" y="0.5" width="349" height="91" filterUnits="userSpaceOnUse" color-interpolation-filters="sRGB">
<feFlood flood-opacity="0" result="BackgroundImageFix"/>
<feColorMatrix in="SourceAlpha" type="matrix" values="0 0 0 0 0 0 0 0 0 0 0 0 0 0 0 0 0 0 127 0" result="hardAlpha"/>
<feOffset/>
<feGaussianBlur stdDeviation="5"/>
<feColorMatrix type="matrix" values="0 0 0 0 0.160784 0 0 0 0 0.180392 0 0 0 0 0.207843 0 0 0 0.05 0"/>
<feBlend mode="normal" in2="BackgroundImageFix" result="effect1_dropShadow"/>
<feBlend mode="normal" in="SourceGraphic" in2="effect1_dropShadow" result="shape"/>
</filter>
</defs>
</svg>
