<svg width="520" height="281" viewBox="0 0 520 281" fill="none" xmlns="http://www.w3.org/2000/svg">
<g clip-path="url(#clip0)">
<path d="M282.178 148.647V149.257C282.177 154.862 279.945 160.236 275.974 164.198C272.003 168.16 266.617 170.386 261.001 170.385H21.9763C16.3618 170.385 10.9775 168.158 7.00748 164.196C3.03748 160.234 0.806916 154.861 0.806381 149.257V148.647H282.178Z" fill="#F2F2F2"/>
<path d="M50.7987 48.0707C33.5253 52.3285 18.019 39.0658 15.3115 26.7619L16.5142 26.5474C31.0732 23.3356 47.3252 33.7218 50.7987 48.0707Z" fill="#B6F7FF"/>
<path d="M468.328 275.931C463.332 273.778 462.197 265.935 466.379 262.46C470.56 258.984 478.084 261.517 479.302 266.81L474.641 233.541C473.57 225.892 472.713 217.342 477.344 211.155C481.682 205.361 490.155 203.504 496.957 205.999C503.759 208.493 508.786 214.714 510.919 221.626C513.052 228.538 512.549 236.049 510.686 243.038C508.824 250.028 505.66 256.593 502.46 263.081C499.181 269.731 495.204 276.936 488.195 279.384C481.499 281.722 468.328 275.931 468.328 275.931Z" fill="#F2F2F2"/>
<path d="M490.221 205.368C493.283 214.906 494.741 224.885 494.535 234.899C494.343 244.869 492.548 254.743 489.22 264.146C487.326 269.48 484.926 274.621 482.052 279.5C481.928 279.73 481.898 279.998 481.969 280.25C482.039 280.501 482.205 280.715 482.431 280.847C482.656 280.978 482.925 281.017 483.179 280.956C483.433 280.894 483.653 280.736 483.792 280.515C488.951 271.717 492.617 262.128 494.641 252.136C496.696 242.097 497.107 231.792 495.859 221.622C495.157 215.923 493.92 210.301 492.164 204.833C491.768 203.606 489.821 204.13 490.221 205.368Z" fill="white"/>
<path d="M465.366 263.684L481.318 280.414C482.214 281.354 483.638 279.93 482.744 278.992L466.791 262.262C465.895 261.322 464.472 262.746 465.366 263.684Z" fill="white"/>
<path d="M451.815 200.514C451.247 200.515 450.697 200.312 450.267 199.94C440.417 193.54 431.65 185.616 424.293 176.467C423.843 176.041 423.578 175.456 423.554 174.837C423.531 174.218 423.751 173.615 424.167 173.156L429.003 167.827L429.999 168.727L425.163 174.056C424.98 174.259 424.884 174.526 424.898 174.798C424.911 175.071 425.033 175.327 425.235 175.511L425.306 175.585C432.59 184.652 441.276 192.502 451.037 198.84L451.125 198.907C451.327 199.09 451.595 199.186 451.868 199.172C452.142 199.159 452.398 199.037 452.582 198.835L462.017 188.437C462.192 188.243 462.287 187.991 462.283 187.73C462.279 187.469 462.176 187.219 461.995 187.032C459.809 185.843 457.676 184.547 455.653 183.178L456.407 182.069C458.418 183.429 460.54 184.716 462.716 185.896L462.846 185.988C463.077 186.197 463.265 186.45 463.399 186.731C463.532 187.013 463.609 187.317 463.624 187.628C463.64 187.939 463.594 188.25 463.489 188.543C463.384 188.837 463.222 189.106 463.012 189.337L453.578 199.735C453.369 199.967 453.116 200.154 452.834 200.288C452.552 200.421 452.246 200.497 451.935 200.511C451.895 200.513 451.855 200.514 451.815 200.514Z" fill="#3F3D56"/>
<path d="M441.414 183.01C444.377 185.685 447.42 187.154 448.213 186.282C448.317 186.134 448.382 185.963 448.403 185.784C448.424 185.605 448.4 185.424 448.334 185.256C448.013 184.269 447.499 183.355 446.822 182.567C444.189 180.697 441.629 178.678 439.143 176.513C438.364 176.258 437.766 176.264 437.477 176.586C437.436 176.632 437.402 176.684 437.376 176.741C436.879 177.753 438.606 180.469 441.414 183.01Z" fill="#B6F7FF"/>
<path d="M423.556 161.453C423.581 162.063 423.847 162.639 424.295 163.055C428.276 167.964 432.651 172.541 437.376 176.741C440.835 179.819 444.495 182.664 448.334 185.256C448.972 185.692 449.617 186.114 450.269 186.53C450.697 186.904 451.246 187.109 451.814 187.107C451.855 187.107 451.895 187.1 451.935 187.1C452.248 187.085 452.554 187.009 452.836 186.876C453.119 186.742 453.372 186.554 453.581 186.322L463.014 175.929C463.437 175.462 463.657 174.847 463.625 174.218C463.594 173.59 463.314 172.999 462.846 172.577L462.718 172.483C452.42 166.931 443.618 158.979 437.06 149.303L436.96 149.183C436.492 148.76 435.875 148.541 435.245 148.573C434.615 148.604 434.024 148.884 433.6 149.35L424.168 159.743C423.958 159.974 423.796 160.244 423.691 160.537C423.586 160.831 423.54 161.142 423.556 161.453ZM424.9 161.386C424.893 161.252 424.912 161.118 424.957 160.991C425.002 160.864 425.072 160.748 425.162 160.648L434.595 150.249C434.686 150.148 434.797 150.066 434.92 150.009C435.044 149.951 435.177 149.919 435.314 149.913C435.561 149.899 435.805 149.975 435.999 150.128C442.653 159.924 451.568 167.982 461.993 173.623C462.174 173.809 462.278 174.058 462.283 174.318C462.288 174.578 462.194 174.83 462.02 175.024L452.58 185.424C452.491 185.525 452.381 185.607 452.259 185.665C452.136 185.722 452.003 185.754 451.868 185.759C451.595 185.772 451.327 185.678 451.122 185.497L451.035 185.43C449.611 184.518 448.207 183.564 446.822 182.567C444.189 180.697 441.629 178.678 439.143 176.513C434.123 172.143 429.492 167.346 425.303 162.177L425.236 162.103C425.034 161.917 424.914 161.66 424.9 161.386V161.386Z" fill="#3F3D56"/>
<path d="M448.213 172.874C449.002 172.004 447.239 169.127 444.275 166.448C441.31 163.769 438.268 162.303 437.478 163.173C436.689 164.043 438.452 166.92 441.416 169.599C444.38 172.278 447.423 173.744 448.213 172.874Z" fill="#B6F7FF"/>
<path d="M388.938 272.596L380.702 272.595L376.783 240.888L388.939 240.889L388.938 272.596Z" fill="#FFB8B8"/>
<path d="M391.039 280.564L364.48 280.563V280.228C364.48 278.873 364.748 277.531 365.267 276.28C365.787 275.028 366.548 273.891 367.508 272.933C368.468 271.975 369.607 271.215 370.862 270.696C372.116 270.178 373.46 269.911 374.818 269.911H374.818L391.039 269.912L391.039 280.564Z" fill="#2F2E41"/>
<path d="M413.125 272.596L404.889 272.595L400.97 240.888L413.126 240.889L413.125 272.596Z" fill="#FFB8B8"/>
<path d="M415.226 280.564L388.667 280.563V280.228C388.667 278.873 388.934 277.531 389.454 276.28C389.973 275.028 390.735 273.891 391.695 272.933C392.655 271.975 393.794 271.215 395.048 270.696C396.303 270.178 397.647 269.911 399.004 269.911H399.005L415.226 269.912L415.226 280.564Z" fill="#2F2E41"/>
<path d="M418.653 144.456L416.686 260.919C416.68 261.288 416.597 261.652 416.444 261.987C416.291 262.323 416.069 262.623 415.794 262.87C415.519 263.116 415.196 263.303 414.846 263.42C414.495 263.536 414.124 263.579 413.756 263.545L404.117 262.671C403.485 262.613 402.893 262.335 402.448 261.884C402.002 261.433 401.73 260.839 401.681 260.207L396.038 187.561C396.025 187.39 395.947 187.231 395.82 187.116C395.693 187.001 395.527 186.939 395.355 186.942C395.184 186.945 395.02 187.014 394.898 187.134C394.775 187.254 394.704 187.416 394.697 187.587L391.877 261.897C391.85 262.59 391.556 263.246 391.055 263.727C390.554 264.208 389.886 264.477 389.191 264.477H378.854C378.17 264.477 377.511 264.217 377.013 263.749C376.514 263.281 376.214 262.64 376.172 261.959L368.936 143.785L411.934 133.057L418.653 144.456Z" fill="#2F2E41"/>
<path d="M387.465 35.0983C396.578 35.0983 403.966 27.7251 403.966 18.6299C403.966 9.53462 396.578 2.16147 387.465 2.16147C378.351 2.16147 370.963 9.53462 370.963 18.6299C370.963 27.7251 378.351 35.0983 387.465 35.0983Z" fill="#FFB8B8"/>
<path d="M367.463 147.921C367.177 147.645 366.949 147.316 366.792 146.951C366.634 146.587 366.551 146.195 366.547 145.798L365.434 66.3816C365.367 62.3418 366.584 58.3847 368.912 55.0787C371.24 51.7728 374.557 49.2883 378.388 47.9819C379.934 40.9821 388.162 40.1054 392.959 40.2101C394.156 40.2359 395.329 40.5493 396.379 41.1239C397.429 41.6985 398.325 42.5174 398.99 43.511L402.429 48.6583L410.008 53.0919C413.515 55.135 416.281 58.2371 417.908 61.9508C419.535 65.6645 419.937 69.7978 419.058 73.7546L417.891 79.0512C413.782 97.7983 414.173 117.249 419.032 135.817L421.379 144.751C421.502 145.216 421.511 145.704 421.406 146.173C421.301 146.643 421.085 147.08 420.776 147.45C420.467 147.819 420.074 148.109 419.63 148.296C419.186 148.483 418.704 148.561 418.223 148.524L415.496 148.315C414.788 148.261 414.122 147.96 413.614 147.465C413.106 146.97 412.79 146.312 412.72 145.607L412.269 141.104C412.26 141.021 412.221 140.944 412.16 140.888C412.098 140.833 412.018 140.802 411.934 140.802C411.851 140.802 411.771 140.833 411.709 140.888C411.647 140.944 411.608 141.021 411.6 141.104L411.163 145.464C411.089 146.2 410.747 146.884 410.201 147.385C409.655 147.886 408.943 148.169 408.201 148.181L369.616 148.773C369.6 148.773 369.584 148.774 369.568 148.774C368.782 148.775 368.026 148.469 367.463 147.921Z" fill="#3F3D56"/>
<path d="M388.755 28.1226C388.823 30.4506 390.442 31.7974 392.431 33.0168C394.419 34.2362 396.743 34.7649 399.02 35.2749C399.326 35.437 399.669 35.5177 400.015 35.5093C400.361 35.5008 400.699 35.4034 400.996 35.2265C401.294 35.0496 401.541 34.7993 401.713 34.4995C401.885 34.1997 401.977 33.8607 401.98 33.5151L404.068 25.5875C404.807 23.0551 405.345 20.4686 405.676 17.8519C406.179 12.8169 404.983 7.40059 401.462 3.7602C397.941 0.11982 391.834 -1.17337 387.614 1.63149C382.606 -4.75162 359.716 9.35106 365.363 13.7897C366.367 14.5793 367.903 13.5802 369.178 13.4833C370.453 13.3865 371.882 13.6103 372.692 14.5978C373.75 15.888 373.289 17.8099 373.725 19.4194C373.905 19.9857 374.196 20.5108 374.581 20.9643C374.966 21.4178 375.437 21.7909 375.966 22.0619C376.496 22.333 377.075 22.4967 377.668 22.5435C378.262 22.5904 378.859 22.5195 379.425 22.335C380.479 21.8166 381.471 21.1803 382.381 20.4384C383.359 19.7883 384.595 19.3079 385.696 19.7179C387.147 20.2584 387.662 22.0315 387.793 23.5717C388.015 25.108 388.336 26.6281 388.755 28.1226Z" fill="#2F2E41"/>
<path opacity="0.2" d="M384.902 72.2595L382.214 105.114L368.105 139.31L388.933 105.785L384.902 72.2595Z" fill="black"/>
<path d="M364.806 152.045C365.576 151.428 366.202 150.65 366.638 149.765C367.074 148.881 367.311 147.912 367.331 146.926C367.351 145.941 367.155 144.963 366.756 144.061C366.356 143.16 365.764 142.357 365.02 141.708L374.008 119.49L361.779 121.955L355.118 142.676C354.11 143.995 353.621 145.638 353.746 147.293C353.87 148.948 354.598 150.5 355.792 151.655C356.986 152.81 358.564 153.487 360.225 153.559C361.886 153.631 363.516 153.092 364.806 152.045V152.045Z" fill="#FFB8B8"/>
<path d="M364.152 142.246L357.229 139.756C356.516 139.496 355.926 138.978 355.576 138.306C355.226 137.633 355.141 136.854 355.338 136.122L366.758 94.4036L368.499 56.6992C368.551 55.5611 368.83 54.4448 369.318 53.4152C369.807 52.3855 370.496 51.4631 371.345 50.7016C372.194 49.94 373.186 49.3545 374.264 48.9791C375.342 48.6037 376.484 48.4459 377.623 48.5148C378.762 48.5838 379.877 48.8781 380.901 49.3807C381.926 49.8833 382.84 50.5841 383.59 51.4425C384.341 52.3008 384.913 53.2995 385.274 54.3805C385.634 55.4615 385.776 56.6032 385.69 57.7393L382.58 99.0248L368.03 140.407C367.809 141.033 367.389 141.568 366.833 141.932C366.278 142.295 365.618 142.466 364.955 142.419C364.681 142.398 364.41 142.34 364.152 142.246Z" fill="#3F3D56"/>
<path d="M435.493 154.224C435.965 153.358 436.242 152.4 436.303 151.416C436.364 150.432 436.208 149.447 435.846 148.53C435.485 147.613 434.926 146.786 434.209 146.107C433.493 145.429 432.636 144.916 431.699 144.603L431.416 120.645L421.083 127.621L422.935 149.303C422.514 150.909 422.698 152.613 423.451 154.092C424.205 155.571 425.476 156.724 427.024 157.33C428.572 157.937 430.289 157.955 431.85 157.383C433.41 156.811 434.707 155.687 435.493 154.224L435.493 154.224Z" fill="#FFB8B8"/>
<path d="M431.106 145.433L423.756 145.797C422.998 145.831 422.254 145.581 421.671 145.095C421.089 144.608 420.709 143.922 420.608 143.171L415.041 100.282L402.091 64.8193C401.7 63.7489 401.527 62.6117 401.58 61.4737C401.634 60.3357 401.913 59.2197 402.403 58.1905C402.892 57.1613 403.582 56.2395 404.431 55.4787C405.281 54.7179 406.274 54.1332 407.352 53.7587C408.43 53.3842 409.572 53.2273 410.711 53.2972C411.851 53.3671 412.965 53.6623 413.989 54.1657C415.013 54.6691 415.926 55.3706 416.676 56.2296C417.426 57.0885 417.998 58.0876 418.357 59.1688L431.426 98.4627L433.975 142.245C434.012 142.907 433.831 143.563 433.459 144.112C433.086 144.661 432.544 145.073 431.914 145.284C431.653 145.37 431.381 145.42 431.106 145.433Z" fill="#3F3D56"/>
<path d="M519.328 280.904H263.352C263.174 280.904 263.003 280.834 262.877 280.708C262.751 280.582 262.681 280.412 262.681 280.234C262.681 280.056 262.751 279.885 262.877 279.76C263.003 279.634 263.174 279.563 263.352 279.563H519.328C519.506 279.563 519.677 279.634 519.803 279.76C519.929 279.885 520 280.056 520 280.234C520 280.412 519.929 280.582 519.803 280.708C519.677 280.834 519.506 280.904 519.328 280.904Z" fill="#3F3D56"/>
<path d="M217.155 136.142C213.296 136.142 210.228 134.997 208.033 132.738C203.074 127.632 203.385 117.79 203.634 109.882C203.707 107.581 203.776 105.408 203.706 103.587L203.706 103.56C203.723 100.003 205.146 96.5973 207.666 94.0817C210.185 91.5661 213.597 90.1442 217.161 90.1249H249.152C253.005 90.1249 256.071 91.2685 258.264 93.5246C263.223 98.6265 262.916 108.466 262.669 116.372C262.597 118.678 262.529 120.856 262.6 122.679C262.587 126.241 261.166 129.654 258.645 132.175C256.124 134.697 252.707 136.122 249.138 136.142H217.155ZM205.05 103.55C205.12 105.414 205.051 107.605 204.977 109.924C204.736 117.579 204.435 127.106 208.998 131.805C210.957 133.821 213.625 134.801 217.155 134.801H249.136C252.346 134.784 255.419 133.504 257.688 131.239C259.958 128.974 261.24 125.906 261.256 122.703C261.184 120.861 261.253 118.66 261.326 116.33C261.565 108.677 261.862 99.1522 257.299 94.4583C255.342 92.4448 252.677 91.4659 249.152 91.4659H217.163C213.957 91.4838 210.887 92.7626 208.619 95.0249C206.351 97.2872 205.069 100.351 205.05 103.55Z" fill="#3F3D56"/>
<path d="M43.7309 49.3047C38.1215 49.2707 32.6341 47.6667 27.8927 44.6749C20.9466 40.3674 15.7018 33.4685 14.2053 26.6714L14.0553 25.9901L15.9324 25.6548C30.7085 22.4001 47.4213 32.8883 51.0016 47.6719L51.1586 48.3202L50.5099 48.4803C48.292 49.0281 46.0157 49.3049 43.7309 49.3047ZM15.6802 27.0623C17.2925 33.2976 22.1857 39.5568 28.6019 43.5359C34.8055 47.4982 42.3233 48.8622 49.5273 47.3328C45.7814 33.5595 30.0957 23.8944 16.2094 26.9674L15.6802 27.0623Z" fill="#3F3D56"/>
<path d="M25.0921 125.503C20.6965 125.503 17.1253 123.54 15.0287 119.959C13.8536 117.875 13.2359 115.525 13.2351 113.134C13.2344 110.743 13.8506 108.393 15.0244 106.308C17.1546 102.666 20.8109 100.69 25.3264 100.759H67.9513C72.4516 100.702 76.1106 102.669 78.242 106.316C79.416 108.399 80.0325 110.75 80.0323 113.14C80.0321 115.53 79.4151 117.88 78.2408 119.964C76.1103 123.602 72.4522 125.545 67.9412 125.501H25.3155C25.2408 125.502 25.1663 125.503 25.0921 125.503ZM25.1171 102.099C21.197 102.099 18.0304 103.829 16.1849 106.985C15.1274 108.862 14.5723 110.98 14.573 113.134C14.5737 115.288 15.1302 117.405 16.1889 119.282C18.0656 122.488 21.297 124.223 25.3055 124.16H67.9513C71.964 124.224 75.2054 122.489 77.0807 119.287C78.1386 117.41 78.6943 115.293 78.6945 113.139C78.6946 110.986 78.1391 108.869 77.0814 106.991C75.2049 103.781 71.9628 102.052 67.9608 102.1H25.3123C25.2472 102.099 25.1818 102.099 25.117 102.099H25.1171Z" fill="#3F3D56"/>
<path d="M228.094 106.07H214.657C213.766 106.07 212.911 105.717 212.281 105.088C211.652 104.459 211.298 103.606 211.298 102.717C211.298 101.828 211.652 100.975 212.281 100.347C212.911 99.7179 213.766 99.3647 214.657 99.3647H228.094C228.985 99.3647 229.839 99.7179 230.469 100.347C231.099 100.975 231.453 101.828 231.453 102.717C231.453 103.606 231.099 104.459 230.469 105.088C229.839 105.717 228.985 106.07 228.094 106.07Z" fill="#B6F7FF"/>
<path d="M228.094 116.798H214.657C213.766 116.798 212.911 116.445 212.281 115.816C211.652 115.187 211.298 114.335 211.298 113.445C211.298 112.556 211.652 111.704 212.281 111.075C212.911 110.446 213.766 110.093 214.657 110.093H228.094C228.985 110.093 229.839 110.446 230.469 111.075C231.099 111.704 231.453 112.556 231.453 113.445C231.453 114.335 231.099 115.187 230.469 115.816C229.839 116.445 228.985 116.798 228.094 116.798Z" fill="#B6F7FF"/>
<path d="M228.094 127.526H214.657C213.766 127.526 212.911 127.173 212.281 126.544C211.652 125.915 211.298 125.063 211.298 124.174C211.298 123.284 211.652 122.432 212.281 121.803C212.911 121.174 213.766 120.821 214.657 120.821H228.094C228.985 120.821 229.839 121.174 230.469 121.803C231.099 122.432 231.453 123.284 231.453 124.174C231.453 125.063 231.099 125.915 230.469 126.544C229.839 127.173 228.985 127.526 228.094 127.526Z" fill="#B6F7FF"/>
<path d="M251.609 106.07H238.172C237.281 106.07 236.426 105.717 235.796 105.088C235.166 104.459 234.812 103.606 234.812 102.717C234.812 101.828 235.166 100.975 235.796 100.347C236.426 99.7179 237.281 99.3647 238.172 99.3647H251.609C252.5 99.3647 253.354 99.7179 253.984 100.347C254.614 100.975 254.968 101.828 254.968 102.717C254.968 103.606 254.614 104.459 253.984 105.088C253.354 105.717 252.5 106.07 251.609 106.07Z" fill="#B6F7FF"/>
<path d="M251.609 116.798H238.172C237.281 116.798 236.426 116.445 235.796 115.816C235.166 115.187 234.812 114.335 234.812 113.445C234.812 112.556 235.166 111.704 235.796 111.075C236.426 110.446 237.281 110.093 238.172 110.093H251.609C252.5 110.093 253.354 110.446 253.984 111.075C254.614 111.704 254.968 112.556 254.968 113.445C254.968 114.335 254.614 115.187 253.984 115.816C253.354 116.445 252.5 116.798 251.609 116.798Z" fill="#B6F7FF"/>
<path d="M251.609 127.526H238.172C237.281 127.526 236.426 127.173 235.796 126.544C235.166 125.915 234.812 125.063 234.812 124.174C234.812 123.284 235.166 122.432 235.796 121.803C236.426 121.174 237.281 120.821 238.172 120.821H251.609C252.5 120.821 253.354 121.174 253.984 121.803C254.614 122.432 254.968 123.284 254.968 124.174C254.968 125.063 254.614 125.915 253.984 126.544C253.354 127.173 252.5 127.526 251.609 127.526Z" fill="#B6F7FF"/>
<path d="M282.178 58.424H0.806358V59.765H282.178V58.424Z" fill="#3F3D56"/>
<path d="M260.007 170.774H22.1711C16.293 170.767 10.6576 168.434 6.50111 164.286C2.34465 160.138 0.00663991 154.514 0 148.647V33.3195C0.00663991 27.4532 2.34465 21.829 6.50111 17.6808C10.6576 13.5327 16.293 11.1993 22.1711 11.1927H260.007C265.885 11.1993 271.52 13.5327 275.677 17.6808C279.833 21.829 282.171 27.4532 282.178 33.3195V148.647C282.171 154.514 279.833 160.138 275.677 164.286C271.52 168.434 265.885 170.767 260.007 170.774ZM22.1711 12.5337C16.6493 12.54 11.3554 14.7319 7.45084 18.6287C3.5463 22.5254 1.34998 27.8087 1.3437 33.3195V148.647C1.34998 154.158 3.54631 159.441 7.45085 163.338C11.3554 167.235 16.6493 169.427 22.1711 169.433H260.007C265.529 169.427 270.823 167.235 274.727 163.338C278.632 159.441 280.828 154.158 280.834 148.647V33.3195C280.828 27.8087 278.632 22.5254 274.727 18.6287C270.823 14.7319 265.529 12.54 260.007 12.5337H22.1711Z" fill="#3F3D56"/>
</g>
<defs>
<clipPath id="clip0">
<rect width="520" height="281" fill="white"/>
</clipPath>
</defs>
</svg>
