<svg width="404" height="274" viewBox="0 0 404 274" fill="none" xmlns="http://www.w3.org/2000/svg">
<path d="M21.9929 243.762C38.9083 197.465 65.3057 155.211 99.4946 119.705C128.501 89.5937 173.645 90.8449 173.645 90.8449L173.903 90.5249C184.768 77.1266 199.347 67.2352 215.813 62.0916C232.278 56.948 249.896 56.7813 266.455 61.6124C270.76 62.8476 274.07 63.3951 275.645 62.8449C304.352 52.7978 303.003 30.1207 327.771 11.8521C371.138 -20.1351 514.982 16.5056 535.265 75.3658C551.704 123.071 625.085 146.193 652.501 182.683C656.788 188.389 660.994 194.161 665.119 199.999C667.053 202.711 668.966 205.444 670.857 208.197C690.28 236.325 707.706 265.783 723.004 296.352C733.036 316.324 741.754 336.93 749.105 358.036C777.696 441.619 767.918 503.891 689.084 488.507C679.751 486.681 670.643 485.047 661.76 483.605C648.896 481.506 636.48 479.781 624.513 478.43C608.398 476.597 593.067 475.396 578.52 474.828C573.628 474.631 568.827 474.499 564.115 474.432C494.444 473.466 442.766 486.578 403.396 506.934C396.722 510.375 390.397 514.017 384.422 517.857C375.296 523.691 366.582 530.146 358.342 537.176C346.94 546.961 336.424 557.736 326.92 569.373L326.398 570.013C280.349 626.339 265.195 688.694 233.163 699.673C96.2368 746.614 9.63672 576.453 0.75567 409.999C0.30725 401.612 0.0595497 393.248 0.0125364 384.908C-0.015217 381.18 0.00310904 377.463 0.067529 373.755C0.208049 364.081 0.634517 354.47 1.34866 344.975C1.61536 341.345 1.92472 337.733 2.27673 334.142C2.66463 330.268 3.08662 326.418 3.57433 322.592C7.0576 294.545 13.1513 267.861 21.9929 243.762Z" fill="#B6F7FF"/>
</svg>
