<svg width="1440" height="111" viewBox="0 0 1440 111" fill="none" xmlns="http://www.w3.org/2000/svg">
<path d="M-961.448 243.903C-875.649 197.58 -741.757 155.301 -568.344 119.775C-421.218 89.6456 -192.239 90.8975 -192.239 90.8975L-190.932 90.5774C-135.822 77.1713 -61.8707 67.2741 21.6447 62.1276C105.16 56.981 194.52 56.8142 278.514 61.6481C300.346 62.884 317.139 63.4318 325.125 62.8813C470.733 52.8284 463.891 30.1381 589.519 11.859C809.485 -20.1467 1539.09 16.5152 1641.97 75.4095C1725.35 123.142 2097.55 146.278 2236.61 182.789C2258.36 188.498 2279.69 194.273 2300.61 200.115C2310.42 202.828 2320.12 205.563 2329.71 208.317C2428.24 236.462 2516.62 265.937 2594.22 296.524C2645.1 316.508 2689.32 337.125 2726.6 358.244C2871.62 441.874 2822.03 504.183 2422.17 488.79C2374.83 486.963 2328.63 485.328 2283.57 483.886C2218.33 481.785 2155.35 480.059 2094.65 478.707C2012.92 476.873 1935.15 475.672 1861.36 475.103C1836.55 474.906 1812.2 474.774 1788.3 474.707C1434.92 473.74 1172.79 486.86 973.101 507.227C939.25 510.671 907.171 514.314 876.865 518.157C830.575 523.994 786.375 530.453 744.582 537.487C686.745 547.278 633.41 558.059 585.201 569.703L582.552 570.343C348.986 626.701 272.119 689.093 109.649 700.079C-584.868 747.046 -1024.12 576.787 -1069.17 410.237C-1071.44 401.844 -1072.7 393.476 -1072.94 385.131C-1073.08 381.401 -1072.98 377.681 -1072.66 373.971C-1071.94 364.292 -1069.78 354.675 -1066.16 345.175C-1064.81 341.542 -1063.24 337.929 -1061.45 334.335C-1059.48 330.46 -1057.34 326.607 -1054.87 322.779C-1037.2 294.716 -1006.29 268.017 -961.448 243.903Z" fill="#B6F7FF"/>
</svg>
