<svg width="380" height="240" viewBox="0 0 380 240" fill="none" xmlns="http://www.w3.org/2000/svg">
<g clip-path="url(#clip0)">
<g opacity="0.5">
<path opacity="0.2" d="M320.334 207.415C317.716 208.988 315.047 210.512 312.326 211.986C311.903 212.214 311.481 212.442 311.058 212.677C309.014 213.771 306.936 214.835 304.827 215.869C304.843 215.704 304.864 215.538 304.889 215.372C305.13 213.655 305.667 211.993 306.475 210.459C306.854 209.724 307.307 209.03 307.825 208.386C309.885 205.818 312.745 204.385 315.667 204.803C317.488 205.081 319.146 206.009 320.334 207.415Z" fill="#3F3D56"/>
<path opacity="0.2" d="M325.132 203.486C325.08 203.856 325.014 204.219 324.934 204.578C323.423 205.548 321.889 206.493 320.333 207.415C317.716 208.988 315.047 210.512 312.325 211.986C311.903 212.214 311.481 212.442 311.058 212.677C310.55 212.305 310.086 211.877 309.673 211.402C308.899 210.509 308.278 209.495 307.835 208.399C306.91 206.009 306.615 203.422 306.978 200.885C307.342 198.348 308.352 195.947 309.912 193.912C311.99 191.345 314.832 189.911 317.754 190.329C320.676 190.747 323.016 192.927 324.27 195.968C325.222 198.353 325.519 200.948 325.132 203.486Z" fill="#3F3D56"/>
<path opacity="0.2" d="M327.231 189.01C328.174 182.464 324.875 176.574 319.864 175.855C314.852 175.136 310.025 179.86 309.082 186.407C308.139 192.953 311.437 198.843 316.449 199.562C321.461 200.281 326.288 195.557 327.231 189.01Z" fill="#3F3D56"/>
<path opacity="0.4" d="M379.546 67.9451C378.655 74.2069 376.411 80.2005 372.968 85.5109L347.21 81.6205L370.489 88.9488C369.228 90.5374 367.86 92.0381 366.394 93.4404C371.318 101.949 373.233 111.863 371.833 121.589C370.433 131.315 365.798 140.289 358.673 147.071C362.838 154.242 364.869 162.45 364.528 170.732C353.577 183.45 340.217 194.859 324.945 204.592C323.426 205.552 321.889 206.493 320.334 207.415C317.716 208.988 315.047 210.512 312.326 211.986C311.429 211.813 310.546 211.616 309.674 211.388C308.59 211.115 307.527 210.797 306.485 210.445C299.345 208.013 292.953 203.787 287.925 198.173C282.898 192.558 279.405 185.746 277.783 178.393C276.161 171.04 276.464 163.394 278.665 156.192C280.865 148.99 284.888 142.475 290.345 137.276C289.901 136.513 289.483 135.738 289.088 134.95C288.97 134.722 288.859 134.494 288.742 134.259C285.542 127.602 284.089 120.243 284.518 112.872L284.57 112.108C284.601 111.697 284.639 111.283 284.681 110.872C284.743 110.291 284.816 109.707 284.899 109.123V109.068C285.576 104.355 287.024 99.7857 289.185 95.5412L320.59 111.324L291.954 90.8422C293.721 88.2307 295.764 85.8166 298.048 83.6417C295.062 78.4332 293.18 72.6683 292.519 66.7043C291.857 60.7402 292.43 54.7041 294.201 48.9699C295.973 43.2358 298.906 37.9259 302.818 33.3693C306.73 28.8126 311.538 25.1064 316.944 22.4802C322.351 19.854 328.24 18.3639 334.247 18.1021C340.254 17.8404 346.25 18.8126 351.865 20.9586C357.48 23.1045 362.594 26.3784 366.889 30.5774C371.185 34.7764 374.57 39.8111 376.836 45.3693L341.567 64.1962L378.736 51.2499C380.08 56.7111 380.355 62.3798 379.546 67.9451Z" fill="#B6F7FF"/>
<path opacity="0.1" d="M364.517 170.718C353.567 183.436 340.206 194.845 324.935 204.578C323.423 205.548 321.889 206.493 320.334 207.415C317.716 208.988 315.047 210.512 312.326 211.986C311.429 211.813 310.546 211.616 309.674 211.388C308.59 211.115 307.527 210.797 306.485 210.445C299.345 208.013 292.953 203.787 287.925 198.173C282.898 192.558 279.405 185.746 277.783 178.393C276.161 171.04 276.464 163.394 278.665 156.192C280.865 148.99 284.888 142.475 290.345 137.276C289.901 136.513 289.483 135.738 289.088 134.95C288.97 134.722 288.859 134.494 288.742 134.259C285.542 127.602 284.089 120.243 284.518 112.872L284.57 112.109C284.601 111.697 284.639 111.283 284.681 110.872C284.743 110.291 284.816 109.707 284.899 109.123V109.068C285.169 108.135 288.742 108.919 294.184 110.796L295.334 111.203C296.538 111.635 297.823 112.112 299.173 112.634C302.119 113.767 305.374 115.104 308.808 116.583L309.033 116.68L309.511 116.887C332.603 126.879 362.98 142.911 358.625 147.05C362.804 154.22 364.848 162.43 364.517 170.718Z" fill="black"/>
</g>
<g opacity="0.5">
<path opacity="0.2" d="M110.411 226.805C108.957 226.303 107.513 225.787 106.08 225.257C102.742 224.031 99.4568 222.736 96.2231 221.37C96.8788 220.839 97.623 220.427 98.4216 220.154C101.306 219.166 104.473 220.109 107.053 222.382C108.445 223.629 109.585 225.13 110.411 226.805Z" fill="#3F3D56"/>
<path opacity="0.2" d="M107.053 222.382C106.857 223.379 106.53 224.346 106.08 225.257C102.742 224.032 99.4569 222.736 96.2233 221.37C93.4097 220.188 90.64 218.955 87.9141 217.669C87.795 216.845 87.7417 216.012 87.7549 215.178C87.7665 214.31 87.8592 213.445 88.0319 212.594C88.7243 209.198 90.6838 206.492 93.5713 205.504C96.4587 204.516 99.6231 205.459 102.202 207.736C102.827 208.288 103.399 208.897 103.913 209.553C105.05 211.014 105.926 212.66 106.502 214.418C107.376 216.98 107.566 219.725 107.053 222.382Z" fill="#3F3D56"/>
<path opacity="0.2" d="M96.4843 214.882C101.465 213.311 103.796 206.646 101.69 199.996C99.5833 193.346 93.8381 189.229 88.8572 190.8C83.8762 192.371 81.5458 199.036 83.652 205.686C85.7581 212.336 91.5034 216.453 96.4843 214.882Z" fill="#3F3D56"/>
<path opacity="0.2" d="M90.9189 199.545C95.8815 197.981 98.2049 191.342 96.1083 184.716C94.0117 178.09 88.289 173.987 83.3264 175.55C78.3638 177.114 76.0404 183.754 78.137 190.379C80.2336 197.005 85.9563 201.109 90.9189 199.545Z" fill="#3F3D56"/>
<path opacity="0.4" d="M103.895 209.553C102.933 210.115 101.945 210.642 100.932 211.132C99.2985 211.924 97.6186 212.617 95.9012 213.205C94.3342 213.745 92.738 214.196 91.12 214.556C89.996 214.81 88.8708 215.016 87.7445 215.175C86.3458 215.375 84.9505 215.507 83.5587 215.569C66.8297 207.276 51.811 197.132 38.9942 185.547C38.8107 185.057 38.648 184.562 38.4714 184.061C35.1858 174.23 35.2418 163.591 38.6307 153.795C30.0602 148.052 23.6599 139.614 20.4476 129.823C18.8495 125.032 18.0313 120.016 18.0241 114.966H54.283L18.3772 109.237C18.776 105.943 19.5234 102.7 20.6068 99.5629C12.0359 93.822 5.63527 85.385 2.4237 75.5947C-5.62921 51.3708 7.0318 25.1498 30.7024 17.0165C46.5486 11.5781 63.3087 15.6344 75.0765 26.1725L51.4821 60.6409L79.5738 30.8162C83.3747 35.3451 86.279 40.5533 88.1322 46.1639C90.2452 52.5012 90.9862 59.2138 90.3064 65.8581L64.8148 74.3923L89.6382 70.2703C89.2246 72.3605 88.6683 74.4199 87.973 76.4343C96.5432 82.176 102.944 90.6127 106.156 100.402C107.712 105.066 108.53 109.944 108.58 114.859V114.897C108.58 115.277 108.58 115.657 108.58 116.037C108.58 116.199 108.58 116.358 108.58 116.521C108.459 121.346 107.593 126.124 106.014 130.687C109.497 133.015 112.643 135.812 115.362 138.996C115.431 139.072 115.497 139.148 115.559 139.228C119.394 143.774 122.321 149.011 124.183 154.655C131.27 175.973 122.3 198.846 103.895 209.553Z" fill="#B6F7FF"/>
<path opacity="0.1" d="M103.895 209.553C102.933 210.115 101.945 210.642 100.932 211.132C99.2987 211.924 97.6187 212.617 95.9014 213.205C94.3344 213.745 92.7382 214.196 91.1202 214.556C89.9962 214.81 88.871 215.016 87.7446 215.175C86.3459 215.375 84.9507 215.507 83.5589 215.569C66.8299 207.276 51.8112 197.132 38.9944 185.547C38.8109 185.056 38.6482 184.562 38.4716 184.061C35.186 174.23 35.242 163.591 38.6309 153.794C30.0604 148.052 23.6601 139.614 20.4477 129.823C19.2048 126.084 71.0364 123.068 94.6447 125.96L95.1952 126.029C102.362 126.952 106.762 128.448 105.997 130.662C109.48 132.991 112.626 135.787 115.345 138.972C115.414 139.048 115.48 139.124 115.542 139.203C119.376 143.75 122.304 148.986 124.166 154.631C131.271 175.973 122.3 198.846 103.895 209.553Z" fill="black"/>
</g>
<path opacity="0.1" d="M132.326 80.0415C132.514 79.7739 132.618 79.4562 132.624 79.1293C132.624 77.1426 128.57 75.536 123.57 75.536C118.571 75.536 114.524 77.1565 114.524 79.1293C114.531 79.5059 114.661 79.8699 114.894 80.1659C109.331 80.7843 105.581 81.9487 105.581 83.2755C105.581 85.2587 113.89 86.8654 124.121 86.8654C134.351 86.8654 142.66 85.2587 142.66 83.2755C142.657 81.852 138.447 80.6289 132.326 80.0415Z" fill="#B6F7FF"/>
<path opacity="0.1" d="M275.977 7.15557C276.276 6.72833 276.441 6.22203 276.451 5.70096C276.451 2.55334 270.018 0 262.083 0C254.148 0 247.715 2.55334 247.715 5.70096C247.73 6.2912 247.938 6.86044 248.307 7.32141C239.472 8.30612 233.521 10.1512 233.521 12.2657C233.521 15.4133 246.677 17.9667 262.949 17.9667C279.221 17.9667 292.377 15.4133 292.377 12.2657C292.377 10.0233 285.691 8.085 275.977 7.15557Z" fill="#B6F7FF"/>
<path opacity="0.1" d="M160.688 7.15557C160.987 6.72833 161.152 6.22203 161.162 5.70096C161.162 2.55334 154.73 0 146.795 0C138.859 0 132.427 2.55334 132.427 5.70096C132.441 6.2912 132.649 6.86044 133.019 7.32141C124.183 8.30612 118.232 10.1512 118.232 12.2657C118.232 15.4133 131.405 17.9667 147.66 17.9667C163.915 17.9667 177.088 15.4133 177.088 12.2657C177.088 10.0233 170.403 8.085 160.688 7.15557Z" fill="#B6F7FF"/>
<path opacity="0.1" d="M124.263 36.918C125.073 36.4516 126.16 36.8973 126.714 37.647C127.268 38.3968 127.427 39.3746 127.566 40.2833C127.874 42.3253 128.095 44.6713 126.717 46.2123C128.971 39.3815 135.463 34.147 142.643 33.3834" stroke="#B6F7FF" stroke-width="3" stroke-miterlimit="10"/>
<path opacity="0.1" d="M214.787 3.0508C215.306 2.75021 216.009 3.05081 216.366 3.51725C216.683 4.03008 216.869 4.61247 216.909 5.21371C217.107 6.52666 217.256 8.0331 216.366 9.01435C217.126 6.82151 218.488 4.88582 220.297 3.42771C222.106 1.96961 224.288 1.0477 226.596 0.766968" stroke="#B6F7FF" stroke-width="3" stroke-miterlimit="10"/>
<path opacity="0.1" d="M274.335 66.9707C274.855 66.6701 275.558 66.9707 275.914 67.4372C276.231 67.95 276.418 68.5324 276.458 69.1336C276.655 70.4466 276.804 71.953 275.914 72.9343C276.675 70.7414 278.037 68.8057 279.845 67.3476C281.654 65.8895 283.837 64.9676 286.145 64.6869" stroke="#B6F7FF" stroke-width="3" stroke-miterlimit="10"/>
<path d="M189.441 22.4549C187.959 23.6918 186.914 25.2777 185.287 26.3937C183.327 27.7412 180.755 28.2526 178.362 28.9747C175.97 29.6968 173.515 30.8301 172.553 32.7961C171.736 34.4787 172.207 36.4309 171.514 38.1515C170.77 39.9793 168.838 41.2612 167.36 42.7365C164.438 45.6457 163.139 49.6467 163.898 53.3783C164.42 55.9593 165.85 58.3433 166.698 60.8621C167.737 63.9441 167.882 67.1746 168.028 70.3706C168.298 76.3721 168.564 82.4324 167.211 88.3372C166.865 89.8195 165.93 112.357 164.119 112.312C168.925 111.901 173.758 111.856 178.587 111.808L250.946 111.117C247.612 106.763 245.483 81.0366 244.776 75.9057C243.558 67.0606 246.507 58.2051 246.854 49.3012C246.902 48.1541 246.902 46.9759 246.428 45.8979C245.929 44.7681 244.932 43.8041 244.6 42.6328C244.122 40.9571 245.081 39.2399 245.112 37.5193C245.175 34.0641 241.65 31.414 238.856 28.8538C236.163 26.3903 233.923 23.5916 231.143 21.1903C228.362 18.789 224.869 16.7539 220.895 16.3842C217.63 16.0836 214.386 16.9302 211.259 17.7663C207.531 18.7614 203.989 20.019 200.032 19.9568C195.666 19.8808 192.976 20.2436 189.441 22.4549Z" fill="#2F2E41"/>
<g opacity="0.1">
<path opacity="0.1" d="M239.281 36.0647C239.382 36.4426 239.529 36.8069 239.718 37.1496C239.671 36.3721 239.482 35.6098 239.16 34.9003C239.145 35.2922 239.186 35.6842 239.281 36.0647Z" fill="black"/>
<path opacity="0.1" d="M169.108 91.5436L168.706 91.5781C168.841 91.581 168.975 91.5694 169.108 91.5436Z" fill="black"/>
</g>
<path d="M244.246 216.052C243.805 216.394 243.278 216.608 242.723 216.671C233.87 218.485 224.938 220.033 215.912 220.523C207.949 220.959 199.962 220.568 191.996 220.178C184.029 219.787 176.07 219.394 168.294 217.787C171.516 211.313 173.545 204.313 174.283 197.122C174.611 193.966 174.69 190.789 174.522 187.62C174.497 187.239 174.45 186.86 174.384 186.483C174.013 184.21 173.099 180.917 173.93 179.273C174.997 177.158 179.092 177.089 181.093 176.695C184.493 176.028 187.91 175.472 191.341 175.006C204.958 173.157 218.713 172.736 232.433 172.324C234.275 172.269 236.47 172.393 237.429 173.966C237.966 174.847 237.938 175.945 237.91 176.978C237.848 179.215 237.87 181.452 237.976 183.688C238.458 193.606 240.584 203.375 244.27 212.597C244.727 213.727 245.146 215.206 244.246 216.052Z" fill="#FBBEBE"/>
<path d="M190.375 93.0119C188.928 94.7913 186.889 95.9868 184.836 97.0372C182.384 98.3016 179.857 99.4185 177.271 100.382C176.748 101.173 177.164 102.223 177.617 103.066C181.679 110.937 187.114 118.76 195.312 122.142C199.519 123.87 204.134 124.302 208.669 124.706C210.082 124.83 211.522 124.955 212.9 124.616C214.278 124.277 215.559 123.459 216.708 122.591C224.22 116.919 229.166 108.501 230.46 99.1897C230.571 98.3639 230.571 97.3516 229.861 96.9093C229.428 96.6433 228.878 96.6951 228.369 96.6986C225.049 96.7331 222.106 94.28 220.572 91.3466C219.038 88.4132 218.63 85.0306 218.252 81.7379C218.252 81.6653 198.733 81.2541 196.971 81.2403C194.222 81.2161 193.315 81.5375 193.048 84.3499C192.768 87.4526 192.422 90.4828 190.375 93.0119Z" fill="#FBBEBE"/>
<path opacity="0.1" d="M190.375 93.0119C188.928 94.7913 186.889 95.9868 184.836 97.0372C182.384 98.3016 179.857 99.4185 177.271 100.382C176.748 101.173 177.164 102.223 177.617 103.066C181.679 110.937 187.114 118.76 195.312 122.142C199.519 123.87 204.134 124.302 208.669 124.706C210.082 124.83 211.522 124.955 212.9 124.616C214.278 124.277 215.559 123.459 216.708 122.591C224.22 116.919 229.166 108.501 230.46 99.1897C230.571 98.3639 230.571 97.3516 229.861 96.9093C229.428 96.6433 228.878 96.6951 228.369 96.6986C225.049 96.7331 222.106 94.28 220.572 91.3466C219.038 88.4132 218.63 85.0306 218.252 81.7379C218.252 81.6653 198.733 81.2541 196.971 81.2403C194.222 81.2161 193.315 81.5375 193.048 84.3499C192.768 87.4526 192.422 90.4828 190.375 93.0119Z" fill="black"/>
<path d="M205.889 89.3324C220.612 89.3324 232.548 77.4211 232.548 62.7279C232.548 48.0346 220.612 36.1234 205.889 36.1234C191.166 36.1234 179.231 48.0346 179.231 62.7279C179.231 77.4211 191.166 89.3324 205.889 89.3324Z" fill="#FBBEBE"/>
<path d="M225.44 94.2697C225.734 98.0013 185.549 101.494 184.033 96.8922C183.133 97.9529 181.481 98.0393 180.166 97.5832C178.85 97.1271 177.742 96.2495 176.496 95.6034C174.418 94.5219 172.078 94.1211 169.776 93.7307C166.026 93.0984 161.671 92.6354 158.894 95.2302C157.935 96.1251 157.281 97.3033 156.318 98.2017C154.636 99.7634 152.257 100.251 150.087 100.966C146.953 102.002 144.066 103.661 141.106 105.112C134.194 108.508 126.825 110.885 119.229 112.167C117.612 112.44 115.985 112.661 114.382 113.045C112.131 113.584 109.881 114.506 108.347 116.237C110.141 118.525 112.716 119.772 115.483 120.674L142.176 129.381C146.192 130.69 150.27 132.027 153.784 134.373C159.639 138.271 163.447 144.677 165.531 151.383C167.615 158.089 168.152 165.165 168.671 172.169C168.896 175.213 169.101 178.388 167.903 181.208C174.12 181.939 180.408 181.835 186.598 180.9C192.557 179.995 198.449 178.316 204.477 178.371C211.055 178.437 217.429 180.565 223.913 181.716C230.398 182.866 237.554 182.901 243.017 179.228C241.854 177.663 241.677 175.427 241.632 173.485L241.494 164.284C241.432 163.174 241.506 162.06 241.715 160.967C242.179 158.998 243.485 157.347 244.319 155.505C245.929 151.95 245.704 147.886 245.794 143.986C245.884 140.085 246.431 135.894 249.072 133.04C250.803 131.177 253.227 130.12 255.685 129.467C259.888 128.348 264.285 128.275 268.627 127.968C282.781 126.955 296.628 123.356 309.48 117.35C308.711 115.73 306.925 114.81 305.294 114.057C301.437 112.278 297.352 110.454 293.121 110.851C291.075 111.044 289.05 111.756 287.01 111.497C285.079 111.248 283.368 110.156 281.492 109.635C280.069 109.241 278.58 109.182 277.119 108.961C273.747 108.446 270.583 107.061 267.463 105.689L259.583 102.234C257.506 101.318 255.342 100.34 253.916 98.5714C253.452 97.9944 253.078 97.3448 252.573 96.8023C251.704 95.8729 250.495 95.3235 249.287 94.94C247.769 94.4128 246.151 94.2356 244.554 94.4217C243.459 94.6388 242.378 94.9215 241.317 95.2683C236.11 96.671 230.737 95.213 225.44 94.2697Z" fill="#B6F7FF"/>
<path d="M255.931 233.425C241.741 236.829 227.286 239.026 212.724 239.99H212.699H176.136H176.115C169.572 239.545 163.123 238.866 156.769 237.951C158.644 232.381 161.228 227.074 164.458 222.161C164.975 221.466 165.379 220.694 165.656 219.874C165.808 219.11 165.886 218.334 165.888 217.556C166.056 215.171 166.983 212.903 168.533 211.081C169.253 211.472 169.98 211.849 170.714 212.21C179.03 216.333 188.085 218.758 197.352 219.345C202.226 219.595 207.112 219.496 211.972 219.052C222.933 218.171 234.331 216.139 243.159 209.688C243.53 209.419 243.897 209.139 244.26 208.852C248.55 212.653 251.032 218.478 252.808 223.923C253.864 227.109 254.84 230.288 255.931 233.425Z" fill="#2F2E41"/>
<path opacity="0.1" d="M205.744 211.443C205.572 212.001 205.529 212.591 205.621 213.168C205.712 213.745 205.934 214.293 206.271 214.771C206.495 214.271 206.562 213.715 206.462 213.177C206.361 212.638 206.099 212.143 205.71 211.758L205.744 211.443Z" fill="black"/>
<path d="M190.597 99.753C191.941 99.0205 193.391 98.3709 194.922 98.3502C197.22 98.3295 199.277 99.7323 200.98 101.28C202.555 102.7 203.98 104.276 205.232 105.986C205.855 106.833 206.45 107.762 206.544 108.809C206.637 109.856 206.063 111.034 205.038 111.283C204.391 111.392 203.726 111.258 203.172 110.906C200.804 109.607 199.048 106.632 196.362 106.922C194.52 107.119 193.274 108.83 192.266 110.377C191.369 111.76 190.462 113.18 190.061 114.776C189.659 116.372 189.853 118.231 190.968 119.433C191.833 120.377 193.097 120.815 194.278 121.306C196.889 122.385 199.279 123.933 201.33 125.874C202.324 126.82 203.269 127.947 203.407 129.329C203.546 130.711 202.497 132.231 201.126 132.134C200.508 132.038 199.925 131.784 199.433 131.398C196.954 129.764 194.423 128.05 191.515 127.449C188.555 126.838 185.498 127.449 182.513 127.905C179.24 128.394 175.951 128.741 172.646 128.949C171.665 129.061 170.672 128.997 169.714 128.759C166.446 127.75 165.494 123.6 165.874 120.601C166.279 117.395 168.644 116.666 171.116 115.073C178.068 110.533 183.227 103.761 190.597 99.753Z" fill="#FBBEBE"/>
<path d="M216.207 99.753C214.86 99.0205 213.413 98.3709 211.879 98.3502C209.58 98.3295 207.524 99.7323 205.821 101.28C204.247 102.7 202.824 104.277 201.573 105.986C200.953 106.833 200.357 107.762 200.264 108.809C200.17 109.856 200.742 111.034 201.766 111.283C202.415 111.392 203.081 111.257 203.636 110.906C206.004 109.607 207.759 106.632 210.442 106.922C212.288 107.119 213.534 108.83 214.538 110.377C215.435 111.76 216.345 113.18 216.744 114.776C217.142 116.372 216.951 118.231 215.836 119.433C214.974 120.377 213.707 120.815 212.527 121.306C209.915 122.385 207.523 123.933 205.471 125.874C204.477 126.82 203.536 127.947 203.394 129.329C203.252 130.711 204.304 132.231 205.675 132.134C206.293 132.038 206.877 131.785 207.368 131.398C209.847 129.764 212.378 128.05 215.286 127.449C218.246 126.838 221.303 127.449 224.288 127.905C227.552 128.417 230.845 128.773 234.144 128.97C235.126 129.082 236.121 129.017 237.08 128.779C240.345 127.771 241.297 123.621 240.92 120.622C240.511 117.416 238.15 116.687 235.674 115.094C228.736 110.533 223.581 103.761 216.207 99.753Z" fill="#FBBEBE"/>
<path d="M187.457 53.1156C189.008 50.6694 190.85 48.0158 193.367 47.7325C196.881 47.3352 199.626 51.7197 203.123 52.2864C207.624 53.0189 212.048 47.2695 216.279 49.3702C218.356 50.4068 219.908 53.2814 222.165 53.2262C223.726 53.1916 224.997 51.7301 226.032 50.2962C227.779 47.8786 229.325 45.3225 230.654 42.6535C226.357 37.7368 220.108 36.6139 214.275 35.719L204.466 34.216C202.105 33.8533 199.703 33.4939 197.355 33.9949C195.233 34.4475 193.253 35.5877 191.331 36.7867C189.039 38.224 183.649 40.532 182.243 43.2063C181.263 45.0617 182.61 45.9255 183.874 47.7947C185.062 49.5683 186.257 51.342 187.457 53.1156Z" fill="#2F2E41"/>
<path opacity="0.1" d="M172.601 113.166C168.347 114.014 164.002 114.322 159.67 114.085C157.97 113.995 156.263 113.819 154.57 113.978C152.528 114.171 150.565 114.845 148.574 115.336C138.26 117.868 127.483 115.394 116.954 114.005C115.095 113.76 113.194 113.549 111.353 113.909C109.667 114.237 108.109 115.025 106.616 115.871C104.199 117.243 101.885 118.79 99.6922 120.498C97.3968 122.287 95.0806 124.568 94.9214 127.467C94.7829 129.961 96.3062 132.259 98.1515 133.955C103.137 138.561 110.539 139.946 117.214 138.699C119.752 138.226 122.227 137.41 124.793 137.127C127.42 136.837 130.076 137.127 132.717 137.003C138.084 136.764 143.222 134.902 148.432 133.606C156.569 131.584 164.986 130.926 173.339 131.658C173.266 131.689 173.187 131.704 173.108 131.701C173.029 131.699 172.951 131.679 172.881 131.643C172.81 131.607 172.749 131.556 172.7 131.493C172.652 131.431 172.618 131.358 172.601 131.281C171.988 129.595 171.957 127.76 171.968 125.967C171.995 121.617 172.2 117.499 172.601 113.166Z" fill="black"/>
<path d="M171.909 113.511C167.654 114.359 163.31 114.668 158.978 114.43C157.278 114.34 155.571 114.164 153.878 114.323C151.835 114.517 149.872 115.19 147.882 115.681C137.568 118.214 126.79 115.74 116.262 114.351C114.403 114.106 112.502 113.895 110.66 114.254C108.974 114.582 107.416 115.37 105.924 116.217C103.506 117.589 101.192 119.135 98.9998 120.843C96.7044 122.633 94.3882 124.913 94.229 127.812C94.0905 130.307 95.6138 132.604 97.4591 134.301C102.445 138.906 109.847 140.292 116.522 139.045C119.059 138.571 121.535 137.756 124.1 137.473C126.728 137.182 129.383 137.473 132.025 137.348C137.391 137.11 142.529 135.247 147.74 133.952C155.876 131.93 164.293 131.271 172.646 132.003C172.574 132.034 172.495 132.049 172.416 132.047C172.337 132.044 172.259 132.024 172.189 131.988C172.118 131.952 172.056 131.901 172.008 131.839C171.96 131.776 171.926 131.704 171.909 131.626C171.296 129.94 171.265 128.106 171.275 126.312C171.303 121.962 171.507 117.844 171.909 113.511Z" fill="#B6F7FF"/>
<path opacity="0.1" d="M235.006 111.317C240.282 112.516 252.981 113.045 258.389 112.865C260.858 112.789 263.319 112.568 265.788 112.575C270.018 112.575 274.242 113.266 278.463 112.986C283.915 112.613 289.271 110.612 294.71 111.127C297.383 111.383 299.955 112.233 302.504 113.083C305.052 113.933 307.828 114.893 309.622 116.959C311.284 118.874 311.889 121.451 312.44 123.925C312.748 125.307 313.056 126.734 312.786 128.12C312.27 130.749 309.843 132.528 307.513 133.855C304.744 135.431 301.704 136.785 298.512 136.712C296.618 136.671 294.776 136.125 292.972 135.558C287.803 133.938 282.52 132.103 277.119 132.508C273.342 132.798 269.568 134.187 265.853 133.437C263.669 132.995 261.699 131.841 259.622 131.074C254.56 129.225 241.712 129.716 236.346 130.227C236.657 127.218 236.619 124.184 236.931 121.171C237.173 118.867 237.405 116.479 236.664 114.282C236.2 112.965 236.044 112.25 235.006 111.317Z" fill="black"/>
<path d="M235.352 112.008C240.628 113.207 253.327 113.736 258.735 113.556C261.204 113.48 263.665 113.259 266.134 113.266C270.365 113.266 274.588 113.957 278.809 113.677C284.262 113.304 289.617 111.303 295.056 111.818C297.729 112.074 300.302 112.924 302.85 113.774C305.398 114.624 308.174 115.584 309.968 117.651C311.63 119.565 312.235 122.142 312.786 124.616C313.094 125.998 313.402 127.425 313.132 128.811C312.616 131.44 310.189 133.219 307.859 134.546C305.09 136.122 302.05 137.476 298.858 137.403C296.964 137.362 295.122 136.816 293.318 136.249C288.149 134.629 282.866 132.794 277.465 133.199C273.688 133.489 269.914 134.878 266.2 134.128C264.015 133.686 262.045 132.532 259.968 131.765C254.906 129.916 242.058 130.407 236.692 130.918C237.003 127.909 236.965 124.875 237.277 121.862C237.519 119.558 237.751 117.17 237.01 114.973C236.546 113.656 236.391 112.941 235.352 112.008Z" fill="#B6F7FF"/>
<path d="M180.343 59.3935C179.533 59.1828 179.221 58.1601 178.49 57.7489C177.76 57.3377 176.846 57.6625 176.32 58.2741C175.831 58.9213 175.566 59.7095 175.565 60.5199C175.5 62.2676 175.977 63.9927 176.931 65.4596C177.886 66.9264 179.271 68.0635 180.897 68.7155C180.173 65.5703 179.893 62.3396 180.066 59.1171L180.343 59.3935Z" fill="#FBBEBE"/>
<path d="M231.433 59.3935C232.243 59.1828 232.551 58.1601 233.282 57.7489C234.012 57.3377 234.926 57.6625 235.452 58.2741C235.943 58.9204 236.208 59.7092 236.207 60.5199C236.272 62.2676 235.795 63.9927 234.841 65.4596C233.886 66.9264 232.502 68.0635 230.875 68.7155C231.599 65.5703 231.879 62.3396 231.706 59.1171L231.433 59.3935Z" fill="#FBBEBE"/>
<g opacity="0.1">
<path opacity="0.1" d="M198.249 136.011C198.909 138.42 199.23 140.908 199.201 143.405C199.201 147.748 198.346 151.538 197.072 153.573C196.964 154.541 196.843 155.501 196.726 156.445C198.522 155.063 199.842 150.523 199.842 145.133C199.828 141.449 199.211 138.164 198.249 136.011Z" fill="black"/>
</g>
<g opacity="0.1">
<path opacity="0.1" d="M208.001 136.011C207.34 138.419 207.018 140.908 207.046 143.405C207.046 147.748 207.904 151.538 209.178 153.573C209.286 154.541 209.403 155.501 209.525 156.445C207.728 155.063 206.409 150.523 206.409 145.133C206.405 141.449 207.021 138.164 208.001 136.011Z" fill="black"/>
</g>
<path opacity="0.1" d="M226.004 48.5687C224.966 50.0026 223.699 51.4641 222.137 51.4987C219.876 51.554 218.329 48.6862 216.252 47.6427C212.038 45.542 207.624 51.2914 203.095 50.5589C199.599 49.9922 196.864 45.6077 193.339 46.005C190.822 46.2883 188.98 48.9419 187.429 51.3881C186.229 49.6168 185.03 47.8431 183.832 46.0672C183.14 45.0307 182.388 44.2878 182.053 43.5208C181.381 45.1654 182.641 46.0361 183.832 47.7948C185.023 49.5534 186.228 51.3432 187.429 53.1157C188.98 50.6694 190.822 48.0159 193.339 47.7326C196.853 47.3352 199.599 51.7198 203.095 52.2864C207.596 53.0189 212.021 47.2696 216.252 49.3703C218.329 50.4068 219.88 53.2815 222.137 53.2262C223.699 53.1917 224.969 51.7302 226.004 50.2963C227.751 47.8787 229.297 45.3226 230.626 42.6535C230.439 42.4393 230.245 42.232 230.048 42.0316C228.854 44.3018 227.503 46.4861 226.004 48.5687Z" fill="black"/>
</g>
<defs>
<clipPath id="clip0">
<rect width="380" height="240" fill="white"/>
</clipPath>
</defs>
</svg>
